<?xml version="1.0" encoding="UTF-8" standalone="no"?>
<svg
   xmlns:dc="http://purl.org/dc/elements/1.1/"
   xmlns:cc="http://creativecommons.org/ns#"
   xmlns:rdf="http://www.w3.org/1999/02/22-rdf-syntax-ns#"
   xmlns:svg="http://www.w3.org/2000/svg"
   xmlns="http://www.w3.org/2000/svg"
   viewBox="0 0 1216 672"
   height="672"
   width="1216"
   xml:space="preserve"
   id="svg2"
   version="1.1"><metadata
     id="metadata8"><rdf:RDF><cc:Work
         rdf:about=""><dc:format>image/svg+xml</dc:format><dc:type
           rdf:resource="http://purl.org/dc/dcmitype/StillImage" /></cc:Work></rdf:RDF></metadata><defs
     id="defs6"><clipPath
       id="clipPath18"
       clipPathUnits="userSpaceOnUse"><path
         id="path16"
         d="M 0,504 H 912 V 0 H 0 Z" /></clipPath><clipPath
       id="clipPath26"
       clipPathUnits="userSpaceOnUse"><path
         id="path24"
         d="M 58.08,450.24 H 518.918 V 45.2598 H 58.08 Z" /></clipPath><clipPath
       id="clipPath78"
       clipPathUnits="userSpaceOnUse"><path
         id="path76"
         d="M 0,504 H 912 V 0 H 0 Z" /></clipPath><clipPath
       id="clipPath106"
       clipPathUnits="userSpaceOnUse"><path
         id="path104"
         d="M 0,504 H 912 V 0 H 0 Z" /></clipPath><clipPath
       id="clipPath122"
       clipPathUnits="userSpaceOnUse"><path
         id="path120"
         d="M 0,504 H 912 V 0 H 0 Z" /></clipPath></defs><g
     transform="matrix(1.3333333,0,0,-1.3333333,0,672)"
     id="g10"><g
       id="g12"><g
         clip-path="url(#clipPath18)"
         id="g14"><g
           id="g20"><g
             id="g22" /><g
             id="g70"><g
               style="opacity:0.168625"
               id="g68"
               clip-path="url(#clipPath26)"><g
                 id="g30"
                 transform="translate(159.0183,363.9352)"><path
                   id="path28"
                   style="fill:#000000;fill-opacity:1;fill-rule:nonzero;stroke:none"
                   d="m 0,0 c 1.702,-0.828 3.411,-1.527 5.371,-0.855 0.942,0.323 1.924,0.528 2.867,0.848 4.734,1.605 9.165,0.699 13.311,-1.779 4.211,-2.517 6.619,-6.517 8.275,-10.976 0.755,-2.033 2.1,-3.413 3.872,-4.614 1.072,1.418 2.066,2.642 1.61,4.73 C 33.733,-5.446 29.657,-0.24 23.233,3.176 16.84,6.576 10.289,7.005 3.504,4.218 1.471,3.383 0.51,1.997 0,0 m -5.764,-13.756 c 1.986,-0.699 3.934,-0.821 6.05,-0.215 5.329,1.526 10.598,1.493 15.481,-1.548 4.041,-2.516 6.538,-6.298 8.06,-10.697 0.746,-2.152 2.319,-3.299 4.127,-4.522 0.653,1.937 1.646,3.661 1.052,5.737 -2.607,9.115 -8.754,14.615 -17.683,17.158 C 9.477,-7.317 7.448,-7.057 5.545,-7.208 3.509,-7.37 1.54,-8.25 -0.49,-8.659 c -2.869,-0.576 -4.466,-2.374 -5.274,-5.097 m 27.499,-30.439 c 1.367,2.387 1.745,4.737 0.788,7.374 -2.916,8.037 -8.667,12.957 -16.685,15.356 -1.959,0.587 -4.114,1.028 -6.113,0.84 -2.429,-0.227 -4.77,-1.275 -7.183,-1.813 -2.576,-0.575 -3.717,-2.371 -4.407,-4.661 2.023,-0.822 4.009,-0.972 6.176,-0.332 4.35,1.283 8.759,1.423 13.05,-0.321 5.206,-2.116 8.348,-6.217 10.198,-11.315 0.819,-2.255 2.199,-3.824 4.176,-5.128 M -94.391,40.292 c 0.127,-2.075 0.041,-3.841 0.375,-5.525 1.211,-6.116 4.523,-11.214 8.223,-16.061 7.213,-9.45 15.971,-17.309 25.5,-24.341 2.753,-2.032 5.609,-3.926 8.496,-5.938 0.326,0.511 0.553,0.877 0.79,1.235 2.441,3.697 4.727,7.509 7.361,11.062 4.771,6.434 5.439,13.32 3.021,20.767 -0.932,2.871 -2.778,4.456 -5.637,5.274 -14.54,4.159 -29.053,8.41 -43.584,12.6 -1.328,0.382 -2.715,0.56 -4.545,0.927 m 78.45,-71.156 c -2.86,2.624 -5.667,5.181 -8.452,7.76 -2.002,1.854 -2.309,3.751 -1.025,6.14 0.283,0.528 0.604,1.036 0.924,1.542 3.843,6.082 7.68,12.167 11.538,18.239 2.378,3.744 4.769,7.481 7.192,11.196 1.875,2.872 4.457,4.49 7.997,4.446 4.161,-0.05 8.335,0.03 12.342,-1.329 0.96,-0.326 1.397,-0.045 1.915,0.746 8.131,12.402 16.296,24.781 24.448,37.168 1.516,2.303 1.305,4.54 -0.486,6.624 -6.743,7.848 -15.308,12.848 -25.045,15.964 -14.729,4.713 -29.842,5.584 -45.069,3.694 -11.609,-1.442 -23.135,-3.559 -34.7,-5.363 -0.6,-0.094 -0.919,-0.303 -0.933,-0.974 -0.013,-0.617 -0.125,-1.133 0.676,-1.411 1.697,-0.588 3.341,-1.326 5.035,-1.923 11.821,-4.166 23.65,-8.312 35.477,-12.463 4.378,-1.536 7.162,-4.473 8.137,-9.08 1.611,-7.61 0.325,-14.578 -3.931,-21.176 -11.046,-17.13 -21.921,-34.37 -32.86,-51.569 -0.45,-0.708 -0.894,-1.426 -1.257,-2.179 -1.177,-2.437 -0.679,-3.672 1.945,-4.353 2.664,-0.692 5.398,-1.108 8.07,-1.775 7.89,-1.971 15.897,-3.531 23.587,-6.606 1.444,2.157 2.907,4.341 4.475,6.682 m 80.619,23.528 c -11.979,-19.4 -23.769,-38.494 -35.591,-57.638 0.434,-0.188 0.719,-0.33 1.017,-0.437 3.678,-1.325 7.355,-2.65 11.036,-3.965 6.317,-2.257 11.721,-5.993 16.671,-10.417 10.705,-9.569 21.374,-19.178 32.047,-28.782 30.831,-27.744 61.739,-55.402 92.46,-83.266 35.58,-32.272 70.995,-64.725 106.475,-97.106 6.671,-6.089 14.087,-10.871 22.861,-13.366 4.796,-1.363 9.627,-1.966 14.563,-0.952 8.772,1.8 15.569,6.583 20.704,13.833 4.541,6.413 5.841,13.392 3.491,20.938 -1.911,6.137 -5.816,10.852 -10.798,14.769 -21.719,17.081 -43.525,34.052 -65.128,51.278 -36.861,29.393 -73.734,58.775 -110.33,88.495 -23.28,18.907 -46.015,38.483 -69.1,57.632 -14.171,11.754 -23.823,26.323 -28.602,44.118 -0.42,1.564 -1.107,3.055 -1.776,4.866 m -80.416,93.641 c 2.107,-0.157 4.215,-0.315 6.323,-0.471 10.151,-0.749 20.178,-2.253 29.879,-5.411 12.685,-4.128 22.373,-12.073 29.299,-23.454 3.816,-6.27 6.078,-13.177 8.41,-20.061 3.902,-11.518 6.78,-23.293 9.113,-35.226 3.209,-16.416 10.173,-31.127 20.68,-44.158 6.314,-7.83 13.753,-14.469 21.553,-20.766 42.906,-34.641 85.828,-69.261 128.636,-104.02 33.838,-27.475 67.843,-54.739 102.142,-81.636 5.384,-4.222 10.275,-8.938 13.759,-14.892 6.129,-10.472 7.815,-21.49 3.241,-32.977 -3.227,-8.106 -8.976,-14.137 -16.922,-17.664 -14.378,-6.382 -28.615,-5.371 -42.518,1.714 -6.118,3.118 -11.222,7.616 -16.314,12.132 -35.397,31.393 -70.77,62.815 -106.223,94.144 -32.427,28.655 -64.93,57.223 -97.431,85.793 -11.053,9.717 -22.115,19.427 -33.342,28.941 -7.039,5.964 -15.257,9.868 -24.119,12.413 -5.747,1.651 -11.644,2.418 -17.558,3.122 -11.305,1.346 -22.648,2.448 -33.726,5.26 -6.143,1.56 -11.981,3.928 -17.706,6.599 -4.632,2.161 -9.242,4.371 -13.862,6.558 -2.042,0.966 -3.157,2.76 -2.894,4.998 0.763,6.509 1.498,13.023 2.435,19.508 0.435,3.012 -0.395,5.276 -2.706,7.198 -6.181,5.138 -12.352,10.289 -18.439,15.538 -4.06,3.501 -7.95,7.193 -10.967,11.689 -3.125,4.658 -5.13,9.729 -5.719,15.332 -0.033,0.31 -0.148,0.612 -0.224,0.917 v 5.76 c 0.08,0.422 0.189,0.841 0.236,1.267 0.615,5.56 1.192,11.125 1.84,16.682 0.485,4.161 1.813,5.005 5.863,3.814 16.852,-4.954 33.691,-9.948 50.559,-14.846 2.882,-0.836 4.627,-2.618 5.408,-5.367 0.675,-2.375 1.136,-4.813 1.664,-7.229 0.137,-0.627 0.328,-1.241 1.055,-1.185 0.362,0.028 0.795,0.404 1.02,0.74 1.645,2.458 3.244,4.946 4.858,7.423 1.304,2.002 2.609,4.002 3.976,6.1 -0.548,0.278 -0.991,0.539 -1.461,0.734 -7.742,3.212 -15.469,6.462 -23.239,9.606 -8.326,3.37 -16.699,6.622 -25.038,9.959 -3.539,1.415 -4.436,2.767 -4.179,6.462 0.345,4.943 0.774,9.881 1.241,14.814 0.076,0.801 0.453,1.61 0.839,2.337 1.178,2.221 3.349,2.864 5.577,3.53 13.241,3.963 26.673,6.904 40.495,7.855 1.949,0.134 3.897,0.282 5.846,0.424 z" /></g><g
                 id="g34"
                 transform="translate(476.2863,67.6759)"><path
                   id="path32"
                   style="fill:#ffffff;fill-opacity:1;fill-rule:nonzero;stroke:none"
                   d="m 0,0 c 1.238,0.13 2.962,0.214 4.65,0.507 6.489,1.126 12.091,3.968 16.194,9.2 7.132,9.093 5.889,21.473 -2.688,29.318 -4.343,3.973 -9.454,6.194 -15.19,7.059 -2.404,0.363 -4.979,1.064 -7.245,0.564 C -9.167,45.57 -13.983,44.075 -18.241,41.171 -28.349,34.278 -30.494,20.054 -22.812,10.545 -17.055,3.419 -9.428,0.344 0,0 m -15.267,55.75 c -1.188,1.03 -2.181,1.951 -3.235,2.796 -17.033,13.659 -34.073,27.309 -51.112,40.962 -52.582,42.132 -105.162,84.268 -157.749,126.394 -5.648,4.525 -11.305,9.039 -17.023,13.475 -2.232,1.731 -4.839,2.457 -7.679,1.849 -2.536,-0.543 -4.132,-2.231 -4.965,-4.581 -0.775,-2.186 0.207,-3.97 1.681,-5.538 0.685,-0.729 1.347,-1.484 2.085,-2.156 8.575,-7.807 17.11,-15.66 25.757,-23.387 30.747,-27.477 61.533,-54.911 92.304,-82.36 31.039,-27.689 62.077,-55.381 93.13,-83.055 1.211,-1.079 2.574,-1.987 3.982,-3.063 4.29,10.293 12.758,15.333 22.824,18.664 M -252.59,288.923 c 0.669,-1.811 1.356,-3.302 1.776,-4.865 4.779,-17.795 14.431,-32.365 28.602,-44.119 23.085,-19.148 45.82,-38.725 69.1,-57.631 36.596,-29.721 73.469,-59.103 110.33,-88.496 C -21.179,76.586 0.627,59.615 22.346,42.534 27.328,38.617 31.233,33.902 33.144,27.766 35.494,20.22 34.194,13.24 29.652,6.827 24.518,-0.423 17.721,-5.205 8.949,-7.006 4.013,-8.019 -0.818,-7.417 -5.614,-6.054 c -8.774,2.495 -16.19,7.278 -22.861,13.366 -35.48,32.381 -70.895,64.834 -106.475,97.106 -30.721,27.865 -61.629,55.522 -92.46,83.266 -10.673,9.605 -21.342,19.213 -32.047,28.782 -4.95,4.425 -10.354,8.161 -16.671,10.418 -3.681,1.315 -7.359,2.639 -11.036,3.964 -0.298,0.107 -0.583,0.249 -1.017,0.437 11.822,19.144 23.612,38.238 35.591,57.638" /></g><g
                 id="g38"
                 transform="translate(143.0769,333.0715)"><path
                   id="path36"
                   style="fill:#ffffff;fill-opacity:1;fill-rule:nonzero;stroke:none"
                   d="m 0,0 c -1.568,-2.341 -3.03,-4.526 -4.475,-6.683 -7.689,3.076 -15.697,4.636 -23.587,6.606 -2.671,0.667 -5.406,1.083 -8.07,1.775 -2.624,0.682 -3.121,1.917 -1.945,4.354 0.364,0.753 0.808,1.471 1.258,2.178 10.938,17.2 21.813,34.44 32.86,51.569 4.255,6.599 5.541,13.567 3.931,21.176 -0.975,4.607 -3.76,7.545 -8.138,9.081 -11.827,4.15 -23.655,8.297 -35.477,12.463 -1.694,0.597 -3.338,1.334 -5.034,1.923 -0.802,0.278 -0.69,0.794 -0.677,1.411 0.014,0.67 0.333,0.88 0.933,0.973 11.565,1.805 23.091,3.921 34.701,5.363 15.226,1.891 30.34,1.019 45.068,-3.694 9.738,-3.116 18.302,-8.115 25.045,-15.963 1.791,-2.084 2.003,-4.321 0.487,-6.625 C 48.727,73.521 40.562,61.142 32.432,48.74 31.913,47.949 31.477,47.668 30.516,47.994 26.509,49.352 22.336,49.272 18.175,49.323 14.634,49.366 12.052,47.749 10.178,44.876 7.754,41.162 5.364,37.425 2.985,33.681 -0.872,27.609 -4.71,21.523 -8.553,15.442 -8.873,14.936 -9.194,14.427 -9.477,13.9 -10.76,11.51 -10.453,9.613 -8.452,7.76 -5.666,5.181 -2.86,2.624 0,0" /></g><g
                 id="g42"
                 transform="translate(64.6269,404.2274)"><path
                   id="path40"
                   style="fill:#ffffff;fill-opacity:1;fill-rule:nonzero;stroke:none"
                   d="m 0,0 c 1.83,-0.367 3.217,-0.545 4.545,-0.928 14.531,-4.189 29.044,-8.44 43.584,-12.599 2.86,-0.818 4.705,-2.403 5.637,-5.274 2.418,-7.447 1.75,-14.333 -3.02,-20.767 -2.635,-3.554 -4.921,-7.365 -7.362,-11.062 -0.237,-0.358 -0.463,-0.724 -0.789,-1.235 -2.888,2.012 -5.743,3.906 -8.497,5.938 -9.528,7.031 -18.286,14.891 -25.5,24.341 -3.7,4.847 -7.011,9.945 -8.223,16.061 C 0.042,-3.842 0.128,-2.075 0,0" /></g><g
                 id="g46"
                 transform="translate(180.7535,319.7397)"><path
                   id="path44"
                   style="fill:#ffffff;fill-opacity:1;fill-rule:nonzero;stroke:none"
                   d="m 0,0 c -1.977,1.305 -3.357,2.873 -4.176,5.129 -1.85,5.098 -4.992,9.198 -10.198,11.314 -4.291,1.744 -8.7,1.604 -13.05,0.321 -2.167,-0.639 -4.153,-0.489 -6.176,0.333 0.69,2.289 1.83,4.086 4.406,4.66 2.414,0.539 4.755,1.586 7.183,1.814 2,0.187 4.155,-0.254 6.114,-0.84 C -7.88,20.331 -2.128,15.412 0.788,7.375 1.745,4.737 1.367,2.387 0,0" /></g><g
                 id="g50"
                 transform="translate(153.2543,350.1793)"><path
                   id="path48"
                   style="fill:#ffffff;fill-opacity:1;fill-rule:nonzero;stroke:none"
                   d="m 0,0 c 0.808,2.723 2.405,4.521 5.274,5.097 2.03,0.408 3.999,1.289 6.035,1.451 1.903,0.151 3.932,-0.109 5.778,-0.635 8.929,-2.543 15.076,-8.043 17.683,-17.158 0.594,-2.076 -0.399,-3.8 -1.051,-5.737 -1.809,1.222 -3.382,2.369 -4.128,4.522 -1.522,4.399 -4.019,8.181 -8.06,10.697 C 16.648,1.278 11.379,1.311 6.05,-0.215 3.934,-0.821 1.986,-0.699 0,0" /></g><g
                 id="g54"
                 transform="translate(159.0183,363.9352)"><path
                   id="path52"
                   style="fill:#ffffff;fill-opacity:1;fill-rule:nonzero;stroke:none"
                   d="m 0,0 c 0.51,1.997 1.471,3.383 3.504,4.218 6.785,2.787 13.336,2.358 19.729,-1.042 6.424,-3.416 10.5,-8.622 12.073,-15.822 0.456,-2.088 -0.538,-3.312 -1.61,-4.73 -1.772,1.201 -3.117,2.581 -3.872,4.614 -1.656,4.459 -4.064,8.459 -8.275,10.976 C 17.403,0.692 12.972,1.598 8.238,-0.007 7.295,-0.327 6.313,-0.532 5.371,-0.855 3.411,-1.527 1.702,-0.828 0,0" /></g><g
                 id="g58"
                 transform="translate(461.0188,123.4263)"><path
                   id="path56"
                   style="fill:#000000;fill-opacity:1;fill-rule:nonzero;stroke:none"
                   d="m 0,0 c -10.065,-3.331 -18.534,-8.371 -22.824,-18.664 -1.408,1.076 -2.771,1.984 -3.982,3.063 -31.053,27.674 -62.09,55.365 -93.13,83.054 -30.771,27.45 -61.557,54.883 -92.303,82.36 -8.647,7.728 -17.182,15.581 -25.758,23.388 -0.737,0.671 -1.399,1.427 -2.084,2.155 -1.475,1.568 -2.456,3.352 -1.681,5.538 0.832,2.351 2.428,4.038 4.965,4.582 2.839,0.608 5.447,-0.118 7.679,-1.85 5.717,-4.436 11.375,-8.949 17.023,-13.474 C -159.508,128.025 -106.928,85.89 -54.346,43.757 -37.308,30.105 -20.267,16.455 -3.235,2.795 -2.181,1.95 -1.188,1.03 0,0" /></g><g
                 id="g62"
                 transform="translate(475.6057,73.4023)"><path
                   id="path60"
                   style="fill:#000000;fill-opacity:1;fill-rule:nonzero;stroke:none"
                   d="m 0,0 c 5.151,-0.002 8.872,0.776 12.308,2.666 2.963,1.63 5.55,3.724 5.993,7.309 0.705,5.716 -1.449,10.346 -6.071,13.73 -3.382,2.476 -7.34,3.206 -11.452,3.277 -6.89,0.119 -12.827,-1.948 -17.154,-7.583 -1.334,-1.739 -2.66,-3.543 -2.961,-5.806 -0.425,-3.201 1.433,-5.392 3.557,-7.344 C -10.978,1.838 -5.152,0.115 0,0 m 0.681,-5.726 c -9.429,0.344 -17.055,3.418 -22.813,10.545 -7.681,9.508 -5.536,23.733 4.571,30.626 4.258,2.904 9.074,4.398 13.962,5.476 2.266,0.5 4.841,-0.201 7.245,-0.563 C 9.383,39.493 14.494,37.271 18.837,33.299 27.414,25.454 28.656,13.073 21.525,3.98 17.422,-1.252 11.82,-4.094 5.331,-5.22 3.643,-5.513 1.918,-5.596 0.681,-5.726" /></g><g
                 id="g66"
                 transform="translate(475.6057,73.4023)"><path
                   id="path64"
                   style="fill:#ffffff;fill-opacity:1;fill-rule:nonzero;stroke:none"
                   d="m 0,0 c -5.152,0.115 -10.978,1.838 -15.78,6.249 -2.124,1.952 -3.982,4.143 -3.557,7.344 0.301,2.263 1.627,4.067 2.961,5.806 4.327,5.635 10.264,7.702 17.154,7.583 4.112,-0.071 8.07,-0.801 11.452,-3.277 4.622,-3.384 6.776,-8.014 6.071,-13.73 C 17.858,6.39 15.271,4.296 12.308,2.666 8.872,0.776 5.151,-0.002 0,0" /></g></g></g></g></g></g><g
       id="g72"><g
         clip-path="url(#clipPath78)"
         id="g74"><g
           transform="translate(755.9332,162.0706)"
           id="g80"><path
             id="path82"
             style="fill:#1a1a1a;fill-opacity:1;fill-rule:nonzero;stroke:none"
             d="m 0,0 h 8.318 l 4.036,-16.268 c 0.426,-1.804 0.763,-3.523 1.009,-5.155 0.246,-1.633 0.484,-3.171 0.714,-4.614 h 0.196 c 0.23,1.443 0.468,2.981 0.714,4.614 0.246,1.632 0.582,3.351 1.009,5.155 L 20.155,0 h 8.146 v -42.033 h -5.955 v 13.904 c 0,2.133 0.02,4.184 0.061,6.152 0.041,1.969 0.094,3.778 0.16,5.427 0.066,1.649 0.139,3.105 0.221,4.368 0.082,1.263 0.156,2.264 0.222,3.002 H 22.542 L 16.193,-36.619 H 12.157 L 5.759,-9.18 H 5.291 c 0.065,-0.738 0.14,-1.739 0.222,-3.002 0.082,-1.263 0.155,-2.719 0.221,-4.368 0.066,-1.649 0.119,-3.458 0.161,-5.427 0.04,-1.968 0.061,-4.019 0.061,-6.152 V -42.033 H 0 Z" /></g><g
           transform="translate(800.7223,124.4671)"
           id="g84"><path
             id="path86"
             style="fill:#1a1a1a;fill-opacity:1;fill-rule:nonzero;stroke:none"
             d="m 0,0 c 0.623,0 1.169,0.106 1.637,0.32 0.467,0.213 0.852,0.582 1.156,1.108 0.304,0.524 0.533,1.218 0.689,2.079 0.156,0.861 0.234,1.948 0.234,3.261 v 19.121 c 0,1.345 -0.078,2.469 -0.234,3.372 -0.156,0.902 -0.385,1.628 -0.689,2.177 -0.304,0.55 -0.689,0.94 -1.156,1.169 -0.468,0.23 -1.014,0.345 -1.637,0.345 -0.64,0 -1.198,-0.115 -1.674,-0.345 -0.475,-0.229 -0.869,-0.619 -1.18,-1.169 C -3.167,30.889 -3.4,30.163 -3.557,29.261 -3.712,28.358 -3.79,27.234 -3.79,25.889 V 6.768 c 0,-1.313 0.078,-2.4 0.233,-3.261 C -3.4,2.646 -3.167,1.952 -2.854,1.428 -2.543,0.902 -2.149,0.533 -1.674,0.32 -1.198,0.106 -0.64,0 0,0 m 0,-4.799 c -0.673,0 -1.403,0.054 -2.19,0.16 -0.788,0.107 -1.568,0.332 -2.338,0.677 -0.772,0.345 -1.514,0.832 -2.228,1.464 -0.713,0.632 -1.345,1.465 -1.894,2.498 -0.55,1.033 -0.989,2.309 -1.317,3.827 -0.328,1.517 -0.492,3.326 -0.492,5.426 v 14.889 c 0,2.116 0.168,3.925 0.504,5.426 0.337,1.501 0.783,2.764 1.342,3.79 0.557,1.025 1.193,1.841 1.907,2.449 0.714,0.606 1.46,1.07 2.239,1.39 0.779,0.32 1.555,0.53 2.325,0.627 0.772,0.099 1.486,0.149 2.142,0.149 0.623,0 1.316,-0.046 2.079,-0.136 0.763,-0.091 1.526,-0.287 2.289,-0.591 0.763,-0.304 1.505,-0.755 2.227,-1.353 0.721,-0.599 1.362,-1.412 1.92,-2.437 0.557,-1.025 1.005,-2.297 1.34,-3.814 0.337,-1.518 0.505,-3.351 0.505,-5.5 V 9.253 C 10.36,7.169 10.188,5.377 9.844,3.876 9.499,2.375 9.048,1.104 8.49,0.062 7.932,-0.98 7.288,-1.817 6.559,-2.448 5.828,-3.08 5.082,-3.572 4.318,-3.925 3.556,-4.278 2.797,-4.512 2.042,-4.627 1.287,-4.741 0.606,-4.799 0,-4.799" /></g><g
           transform="translate(817.1119,162.0706)"
           id="g88"><path
             id="path90"
             style="fill:#1a1a1a;fill-opacity:1;fill-rule:nonzero;stroke:none"
             d="m 0,0 h 5.168 l 10.188,-28.129 h 0.148 c -0.049,0.656 -0.115,1.386 -0.196,2.191 -0.083,0.803 -0.157,1.717 -0.222,2.744 -0.066,1.024 -0.123,2.185 -0.173,3.481 -0.049,1.296 -0.073,2.757 -0.073,4.381 V 0 h 5.709 v -42.033 h -5.217 l -10.14,27.39 H 4.996 c 0.049,-0.738 0.114,-1.538 0.196,-2.399 0.082,-0.861 0.157,-1.875 0.222,-3.04 0.065,-1.165 0.123,-2.522 0.173,-4.072 0.049,-1.551 0.073,-3.393 0.073,-5.526 V -42.033 H 0 Z" /></g><g
           transform="translate(843.2223,128.5521)"
           id="g92"><path
             id="path94"
             style="fill:#1a1a1a;fill-opacity:1;fill-rule:nonzero;stroke:none"
             d="M 0,0 C 0,0.902 0.053,1.735 0.16,2.498 0.267,3.261 0.427,4.085 0.64,4.972 H 5.586 V 2.929 c 0,-1.132 0.07,-2.133 0.21,-3.002 0.139,-0.87 0.369,-1.605 0.688,-2.203 0.321,-0.599 0.746,-1.05 1.281,-1.354 0.532,-0.304 1.184,-0.455 1.956,-0.455 1.214,0 2.14,0.332 2.781,0.997 0.64,0.664 0.959,1.636 0.959,2.916 0,0.656 -0.045,1.259 -0.135,1.809 -0.091,0.55 -0.246,1.094 -0.468,1.636 -0.221,0.541 -0.521,1.112 -0.898,1.71 -0.377,0.599 -0.861,1.268 -1.452,2.006 l -6.645,7.9 c -1.18,1.509 -2.092,3.031 -2.731,4.565 -0.64,1.533 -0.96,3.17 -0.96,4.909 0,1.395 0.218,2.674 0.652,3.839 0.435,1.165 1.063,2.17 1.883,3.015 0.82,0.845 1.833,1.502 3.039,1.969 1.206,0.467 2.572,0.702 4.098,0.702 1.853,0 3.4,-0.263 4.638,-0.788 1.239,-0.526 2.228,-1.214 2.966,-2.068 0.739,-0.852 1.259,-1.808 1.563,-2.866 0.303,-1.059 0.455,-2.121 0.455,-3.187 0,-0.903 -0.07,-1.735 -0.209,-2.499 -0.14,-0.762 -0.3,-1.603 -0.48,-2.522 h -4.922 v 1.994 c 0,2.231 -0.32,3.942 -0.959,5.131 -0.64,1.189 -1.682,1.784 -3.126,1.784 -1.198,0 -2.092,-0.332 -2.682,-0.997 -0.591,-0.664 -0.887,-1.555 -0.887,-2.67 0,-0.591 0.045,-1.124 0.136,-1.599 0.09,-0.476 0.222,-0.915 0.393,-1.317 0.173,-0.402 0.382,-0.792 0.628,-1.169 0.246,-0.378 0.525,-0.771 0.837,-1.181 l 7.408,-8.958 c 1.344,-1.755 2.378,-3.442 3.1,-5.057 0.722,-1.616 1.083,-3.327 1.083,-5.131 0,-1.493 -0.234,-2.839 -0.701,-4.036 -0.468,-1.198 -1.137,-2.215 -2.006,-3.052 -0.87,-0.837 -1.92,-1.48 -3.15,-1.931 -1.231,-0.452 -2.617,-0.677 -4.159,-0.677 -1.904,0 -3.482,0.254 -4.738,0.763 C 3.777,-7.637 2.776,-6.964 2.03,-6.128 1.283,-5.291 0.759,-4.34 0.455,-3.272 0.151,-2.207 0,-1.115 0,0" /></g></g></g><g
       transform="translate(634.6676,160.0491)"
       id="g96"><path
         id="path98"
         style="fill:#1a1a1a;fill-opacity:1;fill-rule:nonzero;stroke:none"
         d="m 0,0 -9.563,67.813 h -0.875 L -20.081,0 Z M -21.914,96.183 H 1.833 L 27.015,-39.924 H 6.137 l -3.746,24.385 h -24.863 l -3.586,-24.385 h -20.958 z" /></g><g
       id="g100"><g
         clip-path="url(#clipPath106)"
         id="g102"><g
           transform="translate(696.0709,134.4691)"
           id="g108"><path
             id="path110"
             style="fill:#1a1a1a;fill-opacity:1;fill-rule:nonzero;stroke:none"
             d="m 0,0 c 2.762,0 5.272,0.358 7.531,1.076 2.257,0.717 4.196,1.832 5.817,3.347 1.62,1.514 2.869,3.438 3.746,5.777 0.876,2.337 1.314,5.1 1.314,8.287 v 10.599 c 0,3.187 -0.318,6.017 -0.956,8.486 -0.638,2.471 -1.687,4.543 -3.147,6.216 -1.462,1.674 -3.362,2.948 -5.699,3.825 C 6.269,48.49 3.399,48.928 0,48.928 H -5.896 V 0 Z m -1.912,63.511 c 2.762,0 5.285,0.331 7.57,0.996 2.283,0.664 4.237,1.7 5.858,3.108 1.619,1.406 2.868,3.239 3.745,5.498 0.876,2.258 1.314,4.981 1.314,8.168 v 5.578 c 0,3.188 -0.318,6.003 -0.956,8.448 -0.638,2.442 -1.687,4.514 -3.147,6.214 -1.462,1.701 -3.374,2.989 -5.738,3.866 -2.365,0.877 -5.247,1.314 -8.646,1.314 h -3.984 v -43.19 z m -24.225,58.252 h 20.878 c 3.08,0 6.268,-0.108 9.563,-0.319 3.293,-0.213 6.507,-0.665 9.641,-1.355 3.135,-0.691 6.11,-1.713 8.926,-3.068 2.815,-1.355 5.272,-3.175 7.371,-5.458 2.098,-2.286 3.772,-5.114 5.02,-8.487 1.248,-3.375 1.873,-7.425 1.873,-12.152 V 84.31 c 0,-3.614 -0.518,-6.933 -1.554,-9.961 C 34.545,71.32 33.177,68.65 31.477,66.34 29.776,64.029 27.838,62.116 25.66,60.603 23.48,59.088 21.25,58.064 18.966,57.534 v -0.638 c 6.746,-1.222 11.834,-4.421 15.261,-9.601 3.425,-5.18 5.139,-11.808 5.139,-19.883 v -6.933 c 0,-4.94 -0.546,-9.231 -1.634,-12.869 -1.089,-3.639 -2.617,-6.747 -4.582,-9.323 -1.965,-2.578 -4.302,-4.689 -7.012,-6.336 -2.709,-1.646 -5.685,-2.935 -8.925,-3.864 -3.241,-0.931 -6.693,-1.567 -10.359,-1.913 -3.666,-0.346 -7.439,-0.518 -11.316,-0.518 h -21.675 z" /></g></g></g><g
       transform="translate(533.5319,256.2318)"
       id="g112"><path
         id="path114"
         style="fill:#1a1a1a;fill-opacity:1;fill-rule:nonzero;stroke:none"
         d="m 0,0 h 20.639 v -119.851 h 28.13 v -16.255 H 0 Z" /></g><g
       id="g116"><g
         clip-path="url(#clipPath122)"
         id="g118"><g
           transform="translate(351.2667,420.6321)"
           id="g124"><path
             id="path126"
             style="fill:#1a1a1a;fill-opacity:1;fill-rule:nonzero;stroke:none"
             d="m 0,0 h 26.935 l 13.068,-52.674 c 1.381,-5.844 2.471,-11.409 3.268,-16.694 0.796,-5.287 1.566,-10.267 2.311,-14.942 h 0.637 c 0.743,4.675 1.514,9.655 2.311,14.942 0.797,5.285 1.885,10.85 3.267,16.694 L 65.264,0 H 91.641 V -136.106 H 72.356 v 45.023 c 0,6.905 0.066,13.547 0.2,19.922 0.132,6.375 0.305,12.232 0.518,17.571 0.211,5.339 0.45,10.053 0.717,14.145 0.265,4.09 0.504,7.331 0.717,9.721 H 72.994 L 52.435,-118.575 H 39.366 l -20.719,88.851 h -1.514 c 0.212,-2.39 0.45,-5.631 0.717,-9.721 0.265,-4.092 0.504,-8.806 0.717,-14.145 0.212,-5.339 0.385,-11.196 0.518,-17.571 0.132,-6.375 0.2,-13.017 0.2,-19.922 v -45.023 H 0 Z" /></g><g
           transform="translate(498.1744,324.449)"
           id="g128"><path
             id="path130"
             style="fill:#1a1a1a;fill-opacity:1;fill-rule:nonzero;stroke:none"
             d="m 0,0 -9.563,67.814 h -0.875 L -20.08,0 Z M -21.914,96.183 H 1.834 L 27.016,-39.923 H 6.137 l -3.746,24.384 h -24.862 l -3.586,-24.384 h -20.958 z" /></g><g
           transform="translate(533.442,420.6321)"
           id="g132"><path
             id="path134"
             style="fill:#1a1a1a;fill-opacity:1;fill-rule:nonzero;stroke:none"
             d="m 0,0 h 20.639 v -59.447 h 0.637 L 44.863,0 h 20.56 L 39.126,-63.83 68.371,-136.106 H 46.298 L 21.276,-71.32 h -0.637 v -64.786 H 0 Z" /></g><g
           transform="translate(608.6315,420.6321)"
           id="g136"><path
             id="path138"
             style="fill:#1a1a1a;fill-opacity:1;fill-rule:nonzero;stroke:none"
             d="M 0,0 H 50.441 V -16.256 H 20.639 V -56.977 H 43.668 V -73.233 H 20.639 v -46.617 h 30.599 v -16.256 H 0 Z" /></g><g
           transform="translate(693.2242,350.3475)"
           id="g140"><path
             id="path142"
             style="fill:#1a1a1a;fill-opacity:1;fill-rule:nonzero;stroke:none"
             d="m 0,0 c 3.612,0 6.667,0.398 9.164,1.195 2.497,0.797 4.516,2.138 6.057,4.025 1.54,1.885 2.656,4.383 3.346,7.49 0.691,3.108 1.037,6.946 1.037,11.515 v 10.758 c 0,3.506 -0.319,6.534 -0.957,9.084 -0.637,2.55 -1.713,4.648 -3.227,6.296 -1.514,1.646 -3.52,2.868 -6.017,3.665 C 6.906,54.825 3.771,55.224 0,55.224 H -3.107 V 0 Z m -23.348,70.285 h 22.392 c 2.55,0 5.352,-0.108 8.407,-0.319 3.055,-0.213 6.109,-0.731 9.164,-1.554 3.055,-0.825 6.003,-2.059 8.846,-3.705 2.841,-1.648 5.365,-3.905 7.57,-6.774 2.203,-2.869 3.971,-6.469 5.299,-10.798 1.327,-4.33 1.992,-9.576 1.992,-15.738 V 27.97 C 40.322,17.611 38.834,9.177 35.859,2.669 32.884,-3.838 28.501,-8.526 22.711,-11.395 L 44.546,-65.822 H 22.711 L 4.622,-14.901 h -7.729 v -50.921 h -20.241 z" /></g><g
           transform="translate(743.233,312.0975)"
           id="g144"><path
             id="path146"
             style="fill:#1a1a1a;fill-opacity:1;fill-rule:nonzero;stroke:none"
             d="m 0,0 c 0,2.921 0.172,5.618 0.518,8.088 0.345,2.471 0.863,5.14 1.554,8.009 H 18.089 V 9.483 c 0,-3.666 0.225,-6.907 0.678,-9.722 0.45,-2.816 1.195,-5.193 2.231,-7.132 1.035,-1.94 2.416,-3.4 4.144,-4.383 1.725,-0.983 3.837,-1.474 6.335,-1.474 3.93,0 6.932,1.076 9.004,3.228 2.072,2.151 3.108,5.298 3.108,9.442 0,2.124 -0.147,4.077 -0.439,5.857 -0.292,1.78 -0.796,3.546 -1.513,5.3 -0.717,1.753 -1.688,3.598 -2.908,5.538 -1.223,1.939 -2.79,4.104 -4.703,6.494 L 12.511,48.211 C 8.686,53.098 5.737,58.025 3.666,62.993 1.594,67.96 0.558,73.259 0.558,78.891 c 0,4.515 0.704,8.658 2.112,12.431 1.406,3.771 3.438,7.025 6.096,9.761 2.656,2.736 5.936,4.862 9.841,6.375 3.905,1.515 8.328,2.272 13.268,2.272 6.003,0 11.01,-0.851 15.021,-2.55 4.01,-1.701 7.211,-3.932 9.602,-6.694 2.391,-2.763 4.077,-5.857 5.061,-9.283 0.982,-3.427 1.474,-6.868 1.474,-10.32 0,-2.923 -0.226,-5.618 -0.678,-8.089 -0.452,-2.47 -0.969,-5.193 -1.553,-8.168 H 44.864 v 6.456 c 0,7.224 -1.036,12.762 -3.108,16.614 -2.071,3.851 -5.445,5.778 -10.12,5.778 -3.878,0 -6.774,-1.076 -8.686,-3.228 -1.913,-2.151 -2.869,-5.034 -2.869,-8.646 0,-1.912 0.146,-3.64 0.439,-5.18 0.291,-1.541 0.716,-2.962 1.275,-4.263 0.558,-1.302 1.234,-2.564 2.031,-3.785 0.797,-1.223 1.7,-2.497 2.71,-3.825 L 50.521,35.541 c 4.356,-5.686 7.704,-11.144 10.042,-16.376 2.336,-5.233 3.505,-10.771 3.505,-16.615 0,-4.835 -0.756,-9.191 -2.27,-13.069 -1.515,-3.878 -3.68,-7.171 -6.495,-9.881 -2.817,-2.709 -6.215,-4.795 -10.199,-6.255 -3.985,-1.461 -8.475,-2.192 -13.468,-2.192 -6.163,0 -11.276,0.825 -15.34,2.471 -4.064,1.646 -7.305,3.825 -9.722,6.534 -2.418,2.709 -4.117,5.79 -5.099,9.244 C 0.49,-7.146 0,-3.613 0,0" /></g></g></g></g></svg>