<?xml version="1.0" standalone="no"?>
<!DOCTYPE svg PUBLIC "-//W3C//DTD SVG 20010904//EN"
 "http://www.w3.org/TR/2001/REC-SVG-20010904/DTD/svg10.dtd">
<svg version="1.0" xmlns="http://www.w3.org/2000/svg"
 width="300.000000pt" height="264.000000pt" viewBox="0 0 300.000000 264.000000"
 preserveAspectRatio="xMidYMid meet">
<metadata>
Created by potrace 1.10, written by Peter Selinger 2001-2011
</metadata>
<g transform="translate(0.000000,264.000000) scale(0.100000,-0.100000)"
fill="#ECECEC" stroke="none">
<path d="M420 2630 c-108 -9 -241 -44 -258 -67 -8 -12 -12 -41 -10 -82 l3 -65
50 -19 c28 -11 105 -42 172 -69 l121 -49 -31 -51 c-30 -48 -32 -49 -40 -27 -5
13 -13 33 -17 45 -7 17 -42 31 -185 73 -97 29 -184 51 -193 49 -14 -3 -17 -17
-19 -78 -2 -57 0 -71 8 -57 10 16 14 13 41 -30 37 -57 129 -149 195 -194 26
-18 50 -34 52 -36 2 -1 -3 -11 -12 -21 -22 -24 -22 -66 -1 -83 9 -8 65 -26
123 -41 l106 -27 29 31 c22 24 39 32 74 35 61 5 93 -10 117 -54 28 -50 52 -64
71 -39 8 11 14 30 14 43 0 13 9 33 20 45 11 12 20 31 20 43 0 12 9 30 20 40
63 57 -43 204 -148 205 -58 0 -130 -56 -103 -83 7 -7 2 -16 -15 -29 -15 -12
-24 -30 -24 -47 0 -16 -10 -37 -25 -51 -20 -19 -27 -21 -40 -10 -8 7 -15 16
-15 21 0 12 108 185 124 198 7 6 39 12 72 13 l59 3 90 133 c80 120 91 131 102
115 17 -23 66 -177 88 -274 l17 -77 -35 -48 c-18 -27 -75 -117 -126 -201 -106
-175 -106 -179 -11 -214 30 -11 70 -32 89 -47 28 -21 275 -240 496 -441 22
-20 114 -103 205 -185 91 -81 185 -167 210 -190 25 -23 146 -134 270 -247 216
-196 250 -226 350 -319 51 -47 143 -95 200 -105 86 -15 190 46 234 137 20 43
25 48 26 27 0 -41 -51 -131 -89 -157 -19 -12 -53 -27 -75 -34 -57 -16 -67 -28
-23 -28 46 0 92 18 133 53 47 40 65 87 65 168 0 127 -3 130 -421 465 -815 653
-1248 1008 -1308 1071 -82 87 -144 211 -173 348 -57 271 -121 395 -237 458
-91 49 -258 71 -432 57z m342 -48 c71 -26 146 -76 160 -107 9 -21 1 -39 -73
-154 l-84 -131 -42 6 c-76 11 -86 4 -162 -119 -39 -63 -71 -120 -71 -127 0 -8
14 -28 31 -46 27 -28 29 -34 17 -53 -8 -13 -19 -19 -28 -15 -14 6 -122 34
-182 48 -16 4 -28 11 -28 16 0 5 56 98 124 206 69 108 128 210 131 226 9 40
-2 92 -23 110 -9 8 -66 32 -127 53 -145 51 -178 65 -171 73 4 3 53 14 109 24
140 24 339 19 419 -10z m-542 -47 c7 -8 26 -19 44 -24 46 -14 226 -80 245 -90
13 -7 16 -21 14 -62 -4 -59 -7 -66 -25 -51 -7 5 -80 37 -163 70 l-150 60 -3
42 c-5 66 11 88 38 55z m-11 -241 c173 -50 191 -62 191 -127 0 -31 -10 -56
-41 -104 l-41 -63 -60 46 c-87 68 -165 151 -193 208 -24 48 -32 86 -19 86 4 0
77 -21 163 -46z m591 -196 c48 -25 93 -81 88 -110 -5 -30 -22 -24 -40 15 -9
19 -30 45 -45 57 -24 19 -36 21 -85 16 -46 -4 -58 -3 -58 8 0 15 41 34 75 35
12 1 41 -9 65 -21z m-41 -83 c54 -28 105 -105 83 -127 -7 -7 -19 3 -36 31 -39
61 -66 75 -132 67 -43 -5 -55 -3 -52 6 12 35 89 48 137 23z m341 -48 c16 -59
69 -149 118 -200 89 -93 824 -695 1474 -1206 121 -95 217 -178 230 -199 67
-109 -21 -250 -162 -260 -105 -8 -146 20 -455 303 -395 364 -1262 1146 -1305
1177 -20 15 -62 36 -94 48 -31 12 -56 25 -54 29 14 34 224 367 229 362 3 -3
12 -28 19 -54z m-353 -55 c35 -25 68 -86 59 -109 -5 -12 -9 -13 -21 -3 -8 7
-15 18 -15 25 0 7 -13 27 -30 45 -28 30 -33 32 -89 28 -33 -1 -60 0 -60 5 -1
4 -1 11 -1 16 0 28 116 23 157 -7z"/>
<path d="M1062 1708 c-23 -23 -12 -45 51 -104 82 -78 1347 -1208 1356 -1211 3
-1 18 15 32 36 17 25 43 45 73 57 25 10 45 22 43 25 -1 4 -339 277 -752 608
-447 358 -758 601 -770 601 -12 0 -26 -5 -33 -12z m450 -344 c216 -173 400
-321 408 -327 8 -7 29 -23 46 -37 17 -14 45 -36 64 -50 18 -14 38 -30 44 -35
6 -6 117 -96 246 -200 129 -104 237 -190 240 -193 3 -2 -4 -8 -15 -15 -11 -6
-33 -24 -49 -39 -16 -16 -34 -27 -40 -25 -6 3 -211 184 -456 402 -245 219
-478 428 -519 464 -41 36 -79 71 -85 76 -6 6 -74 67 -151 137 -168 151 -175
158 -147 158 11 0 188 -134 414 -316z"/>
<path d="M2652 437 c-47 -15 -88 -56 -102 -104 -12 -38 -11 -46 11 -90 31 -62
83 -93 158 -93 129 0 209 112 150 210 -46 75 -130 105 -217 77z m133 -40 c27
-13 65 -48 65 -60 0 -5 -14 3 -30 17 -58 49 -146 46 -205 -6 -41 -35 -50 -15
-11 23 47 45 122 56 181 26z m27 -76 c34 -38 36 -74 4 -106 -46 -46 -145 -41
-200 10 -33 30 -33 45 1 85 35 42 58 51 117 46 41 -3 55 -9 78 -35z"/>
<path d="M10 2171 c0 -54 42 -112 146 -201 l96 -82 -6 -44 c-3 -24 -9 -64 -12
-89 l-6 -44 88 -41 c107 -49 164 -64 320 -85 150 -19 209 -36 272 -79 45 -30
743 -641 1387 -1215 280 -249 331 -285 406 -279 l44 3 -67 23 c-71 25 -123 58
-203 130 -64 57 -51 46 -435 387 -416 369 -416 369 -730 644 -146 128 -278
245 -295 260 -106 97 -192 134 -367 156 -155 20 -220 36 -312 79 l-74 34 5 89
6 90 -103 88 c-86 74 -107 99 -131 149 -27 59 -28 60 -29 27z"/>
</g>
</svg>

